P1
# CREATOR: GIMP PNM Filter Version 1.1
5 8
1000101010101011111101110100011000101010
